<?xml version="1.0" encoding="utf-8"?>
<!-- Generator: Adobe Illustrator 18.0.0, SVG Export Plug-In . SVG Version: 6.00 Build 0)  -->
<!DOCTYPE svg PUBLIC "-//W3C//DTD SVG 1.1//EN" "http://www.w3.org/Graphics/SVG/1.1/DTD/svg11.dtd">
<svg version="1.1" id="Mode_Isolation" xmlns="http://www.w3.org/2000/svg" xmlns:xlink="http://www.w3.org/1999/xlink" x="0px"
	 y="0px" viewBox="0 0 50 50" enable-background="new 0 0 50 50" xml:space="preserve">
<path fill="#DADAD9" d="M35.6,20.4c0,5.8-10.6,19.7-10.6,19.7S14.4,26.3,14.4,20.4S19.2,9.8,25,9.8S35.6,14.6,35.6,20.4z"/>
<g>
	<polygon fill="none" points="27.8,20.1 27.7,20.3 27.7,20.5 27.8,20.3 27.8,20.1 27.9,20.1 	"/>
	<polygon fill="none" points="27.6,20.7 27.5,20.7 27.4,20.8 27.4,20.9 27.6,20.9 27.7,21.1 27.7,21 27.6,20.9 	"/>
	<polygon fill="none" points="27.4,22.9 27.5,23.1 27.6,22.9 27.5,22.7 	"/>
	<polygon fill="none" points="26.6,23.6 26.6,23.8 26.6,23.9 26.6,23.7 26.9,23.7 27.1,23.6 26.9,23.5 	"/>
	<polygon fill="none" points="22.3,19.3 22.1,19.3 22.1,19.6 22.1,19.7 22.3,19.5 	"/>
	<polygon fill="none" points="22.4,20.4 22.5,20.7 22.6,20.8 22.6,20.7 22.6,20.4 22.7,20.1 22.4,19.9 22.2,20.1 	"/>
	<polygon fill="none" points="22.9,19.5 23.1,19.6 22.9,19.7 23,19.9 23.3,19.9 23.5,20 23.6,20 23.6,19.9 23.3,19.7 23,19.3 
		22.6,19.5 22.7,19.7 	"/>
	<polygon fill="none" points="22.8,20.8 22.8,21 22.8,21.1 23,20.9 23,20.7 22.8,20.7 	"/>
	<polygon fill="none" points="23.1,20.1 23,20.2 23.1,20.2 23.3,20.2 23.4,20.4 23.4,20.1 	"/>
	<polygon fill="none" points="23.5,21.2 23.6,21.1 23.6,21 	"/>
	<polygon fill="none" points="23.9,20.2 23.7,20.2 23.6,20.4 23.8,20.3 	"/>
	<polygon fill="none" points="24.1,21 24,20.9 24,21.1 24.1,21.2 	"/>
	<polygon fill="none" points="24.4,18.8 24.5,18.8 24.5,18.6 24.5,18.5 	"/>
	<polygon fill="none" points="25.1,19.1 25,19.1 24.8,19.1 24.9,19.2 25.2,19.1 25.4,19 	"/>
	<polygon fill="none" points="25,17 24.8,17 24.8,17.2 24.9,17.1 	"/>
	<polygon fill="none" points="25.5,16.2 25.4,16.1 25.4,16.1 25.1,16.1 25.1,16.3 25.4,16.4 	"/>
	<polygon fill="none" points="25.1,17.5 25.3,17.5 25.5,17.4 25.2,17.4 	"/>
	<polygon fill="none" points="23.7,25.2 23.8,25.1 23.6,25.1 	"/>
	<polygon fill="none" points="21.8,24 22,24 22,23.9 21.9,23.9 	"/>
	<polygon fill="none" points="22,23.4 21.8,23.6 21.8,23.7 22,23.5 22.3,23.5 22.4,23.7 22.5,23.7 22.5,23.5 22.2,23.4 	"/>
	<polygon fill="none" points="23.6,24.6 23.5,24.5 23.6,24.4 23.6,24.3 23.4,24.4 23.5,24.5 23.5,24.7 23.7,24.7 23.8,24.6 
		23.7,24.5 	"/>
	<polygon fill="none" points="23.7,23.9 23.7,23.9 23.6,23.8 23.5,23.7 23.5,23.8 23.6,23.9 23.6,24 23.8,24 23.8,23.9 23.8,23.8 	
		"/>
	<polygon fill="none" points="22,22.6 22,22.5 21.9,22.7 21.8,22.8 22,22.8 	"/>
	<polygon fill="none" points="22.4,22.8 22.4,22.7 22.3,22.7 22.3,22.9 	"/>
	<polygon fill="none" points="24.2,23.5 24.1,23.4 24,23.6 24.3,23.5 	"/>
	<path fill="#FFFFFF" d="M31.9,19l-0.2-0.7l-0.2-0.4l-0.1-0.4l-0.3-0.6L31,16.5l-0.2-0.3L30.6,16l-0.2-0.3L29.6,15l-1-0.6L26,13.5
		h-0.9l-1.3,0.1l-0.4,0.1H23l-0.3,0.2L22,14.1l-1,0.6l-0.3,0.2l-0.6,0.4l-0.5,0.6l-0.6,1l-0.2,0.3l-0.4,1L18.2,19l-0.1,2.2l0.2,1.2
		l0.3,0.6l0.1,0.4l0.2,0.3l0.9,1.2l0.5,0.5l0.2,0.3l1.3,0.7l0.4,0.2l1.6,0.5l1.1,0.1l1.7-0.2l0.7-0.2L29,26l1.3-1.3l0.2-0.3l0.7-1.3
		l0.1-0.4l0.1-0.4l0.1-0.3l0.1-0.4l0.1-1.3L31.9,19z M30.5,16.9L30.5,16.9v0.2V16.9L30.5,16.9z M30.3,18.2h0.1v0.1l-0.2,0.1
		L30.3,18.2L30.3,18.2z M30,19.4l0.2,0.1l-0.1,0.1L30,19.4L30,19.4L30,19.4z M29.6,19.3h-0.1l-0.1-0.1l0.1-0.1L29.6,19.3L29.6,19.3z
		 M29.3,18.8L29.3,18.8L29.3,18.8L29.3,18.8z M29.2,17.1v0.2l-0.1,0.1L29.2,17.1H29H29.2z M28.5,18.8c0.1,0.4,0.2,0.8,0.1,1.1h-0.1
		l-0.1-0.1V20v0.1h0.1h0.1c-0.1,0.4-0.3,0.8-0.6,1.1c-0.2,0.2-0.4,0.4-0.7,0.5l0,0h-0.2H27l0.1,0.1c0,0-0.1,0-0.1,0.1
		c-0.4,0.1-0.9,0.1-1.3,0l0,0h-0.1c0,0,0,0-0.1,0c-0.1-0.3-0.2-0.6-0.1-1l0,0l0,0c0-0.4,0.2-0.7,0.4-1h0.1V20h-0.1l-0.1,0.1h0.1
		l0.1-0.1l0.1-0.2l-0.1-0.1c0,0,0,0,0-0.1c0.1-0.1,0.1-0.1,0.2-0.2l0.1-0.1l0,0v-0.1c0.1-0.1,0.2-0.1,0.3-0.2l0.1,0.1l0.3,0.2
		l-0.1,0.2h0.1v-0.2l-0.1-0.1L26.5,19l0,0c0.5-0.3,1.1-0.4,1.7-0.2v-0.5c0-0.1,0.1-0.1,0.1-0.1c0.1,0,0.1,0.1,0.1,0.1L28.5,18.8
		L28.5,18.8z M26.5,15L26.5,15l0.2-0.1v0.2l0.1,0.1l-0.2,0.1l-0.1,0.1v0.2v-0.2v-0.2V15z M28.4,17.4l-0.1-0.1l0.1-0.1h0.2L28.4,17.4
		z M28.3,15.1v0.1h-0.1L28.3,15.1z M28.2,16.8h0.2L28.3,17L28.2,16.8L28.2,16.8z M27.7,15.9l0.1-0.1v0.1h-0.2H27.7z M27.7,16.2
		L27.7,16.2l0.1-0.1l0.1,0.1H27.7L27.7,16.2L27.7,16.2z M27,16L27,16l0.2,0.1l-0.1,0.1l-0.2-0.1L27,16z M27,16.6l0.1,0.2H27V16.6
		L27,16.6z M26.4,14.3L26.4,14.3h0.2l0.1,0.1l-0.1,0.1l0.1,0.1l0.1-0.1l0.1,0.1l-0.2,0.1l-0.2-0.1v0.1v0.1v-0.1v-0.1L26.4,14.3
		L26.4,14.3z M26.1,14h0.2l-0.1,0.2L26,14.3L26.1,14z M22.5,16.9l-0.1,0.2h0.1l0,0l0.1,0.1l-0.1,0.1l-0.2,0.1v-0.2L22.5,16.9z
		 M21.6,16.1l0.1-0.1l0.1,0.1v0.1H22l0.1,0.2L22,16.3l-0.1-0.1l-0.1-0.1L21.6,16.1l-0.1,0.1L21.6,16.1z M22.1,17.4L22,17.5l-0.2,0.1
		l-0.1-0.1h0.1l0.1-0.2L22.1,17.4L22.1,17.4z M21.6,18.8L21.6,18.8v-0.5c0-0.1,0.1-0.1,0.1-0.1c0.1,0,0.1,0.1,0.1,0.1v0.5
		c0.4-0.1,0.8-0.1,1.3,0.1L23,19l0.2,0.2l0.1-0.1v-0.3c0.1,0.1,0.3,0.1,0.4,0.2l0,0v0.1h0.1l0,0c0.1,0.1,0.1,0.1,0.2,0.2
		s0.2,0.2,0.3,0.3h-0.1v0.1l-0.1-0.1L24,19.8V20l0.1-0.1l0.1-0.1h0.1l0,0c0.1,0.1,0.1,0.2,0.2,0.3l-0.1,0.1l0.1,0.1h0.1
		c0.1,0.3,0.2,0.5,0.2,0.8s0,0.6-0.1,0.9c-0.2,0.1-0.5,0.1-0.7,0.1c-0.6,0-1.2-0.2-1.7-0.7C21.5,20.6,21.3,19.6,21.6,18.8z
		 M21.4,16.6l0.1,0.1l-0.1,0.1V16.6z M21.2,16.9l0.1,0.3h-0.1l-0.1,0.1L21,17.2h0.1L21,17.1V17l0,0L21.2,16.9z M21,17.5L21,17.5v0.2
		V17.5L21,17.5z M20.8,15.4L20.8,15.4l-0.1,0.2v-0.1L20.8,15.4z M20.7,16L20.7,16l0.2-0.1L20.7,16L20.7,16L20.7,16v0.2V16L20.7,16z
		 M20.7,17.3v0.2V17.3L20.7,17.3z M20.6,20l-0.2,0.1v-0.2l0.1-0.1L20.6,20z M20.2,16.2h0.2v0.1h-0.2V16.2z M20.3,19.3h-0.1l-0.1-0.1
		L20.3,19.3L20.3,19.3z M20.1,16.6l0.1,0.1L20.1,16.6H20H20.1z M20,19.1v0.1l0.1,0.1L20,19.4l-0.1-0.1L20,19.1L20,19.1L19.9,19
		L20,19.1L20,19.1z M19.6,21.3v-0.1h0.2l0.2-0.1V21h0.1v0.2h-0.2l-0.1,0.1L19.6,21.3L19.6,21.3z M19.7,21.5L19.7,21.5h-0.2H19.7
		L19.7,21.5z M19.8,19.9l0.1,0.1l0.1,0.2v-0.1L19.8,20V19.9z M19.8,18.3L19.8,18.3l-0.1,0.2L19.8,18.3L19.8,18.3z M19.7,19.7
		l0.1,0.1l-0.1,0.1h-0.1L19.7,19.7L19.7,19.7z M19.6,19L19.6,19L19.6,19L19.6,19L19.6,19z M19.6,19.4l-0.2,0.1l-0.2-0.1h0.1l0.1-0.1
		l-0.1-0.1h0.2L19.6,19.4z M19.3,17.5l0.1-0.1v0.2L19.3,17.5l-0.1,0.2L19.3,17.5z M19.2,17.9L19.2,17.9L19.2,17.9v0.2V18V17.9z
		 M18.8,21l0.1-0.2v-0.1v-0.1l0.1,0.1h0.1v-0.1l0.1-0.1l0.1-0.1L19,20.3l0.1-0.2l0.1,0.2l-0.1,0.2l0,0L19,20.6l0.2,0.2L19,21H18.8z
		 M18.9,21.2l0.1-0.1l0.2-0.1l0.1,0.1h0.1l0.1-0.1v-0.2h0.1l0.1,0.1l0.1,0.1h-0.2l-0.1,0.2L19.4,21h-0.1l-0.1,0.1L18.9,21.2z
		 M19.6,22.8L19.6,22.8l-0.1-0.1h-0.2v0.1v-0.1l0.1-0.1v-0.1l0.1,0.1L19.6,22.8L19.6,22.8z M19.8,22.4L19.8,22.4l-0.2,0.1l-0.2-0.2
		l-0.1,0.1l-0.1,0.1v-0.1l0.1-0.2h0.3l0.1-0.1v0.1L19.8,22.4L19.8,22.4z M20.2,21.7H20V22l-0.1,0.1V22l-0.1-0.1l-0.2-0.1h-0.1v-0.1
		h0.1l0.1,0.1l0.1-0.1l0.2-0.1l0.1-0.1h0.2L20.2,21.7z M20.2,20.7L20.2,20.7L20.2,20.7L20.2,20.7z M20.5,21.9L20.5,21.9l-0.1-0.2
		l0.1-0.1v0.1l0.1,0.1L20.5,21.9z M20.5,21.3v-0.2h-0.1L20.3,21h0.1v-0.1L20.3,21v-0.1l0.2,0.1l0.2,0.2v0.3l-0.1,0.2L20.5,21.3z
		 M20.6,21.7v-0.1l0,0V21.7L20.6,21.7L20.6,21.7z M20.8,21.5v-0.2H21v0.2H20.8z M20.8,21l-0.1-0.1l-0.3-0.2l0.1-0.1h0.1v0.1h0.1
		l0.1,0.1L20.8,21L20.8,21z M20.9,18.8v-0.1l0.1-0.1L20.9,18.8L20.9,18.8z M20.8,18v-0.2h0.1v0.1L20.8,18z M21.6,23.7h-0.1H21.6
		L21.6,23.7L21.6,23.7z M23.1,25.9L22.9,26v-0.1l0.1-0.1v-0.1l0.1,0.1V25.9L23.1,25.9z M23.9,26.5l-0.3-0.1l-0.1-0.2h-0.2h-0.2
		l0.1-0.1l0.4-0.1l0,0h0.1h0.1l0,0l-0.1,0.2l0.2,0.1V26.5z M23.2,25.9l0.1-0.1h0.1v0.1H23.2L23.2,25.9z M23.6,26L23.6,26v-0.1
		l-0.1-0.2l0,0h0.2v0.1L23.6,26L23.6,26z M23.8,26L23.8,26L23.8,26L23.8,26L23.8,26L23.8,26z M24.1,24.9L24,24.7l-0.1,0.1L24.1,24.9
		L24,25.1v0.1h-0.1h-0.1l0,0l-0.2,0.2l0,0h-0.1v-0.1l0.1-0.3c-0.1,0-0.1,0-0.2,0v-0.1l-0.1-0.2h-0.1h-0.1v-0.2l0.1-0.1v-0.1
		l-0.4,0.1l-0.1-0.2l-0.1-0.1l-0.1,0.1l0,0v0.1l-0.1,0.1l0.1,0.1h0.2h0.1v0.2l0.4-0.1h0.1V25h-0.2l0,0c-0.3-0.1-0.7-0.3-0.9-0.6
		c-0.1-0.1-0.1-0.1-0.2-0.2l0.1-0.1L22,24.3c-0.3-0.4-0.5-0.9-0.5-1.3l0,0l0,0l-0.1,0.1h-0.1l-0.1,0.1v-0.1H21V23h0.1l0.1-0.3
		l0.2,0.1h0.1c0-0.2,0-0.5,0.1-0.7l0,0v-0.6c0-0.1,0.1-0.1,0.1-0.1c0.1,0,0.1,0.1,0.1,0.1V22c0.8-0.2,1.6,0,2.2,0.6
		c0.4,0.4,0.6,1,0.7,1.5h-0.1h-0.1L24.4,24v0.1h0.2h0.1c0,0,0,0,0,0.1c0,0.2,0,0.5-0.1,0.7l0,0l0.1,0.1l0,0h-0.1l0,0
		c-0.1,0-0.2,0.1-0.3,0.1l0.1,0.1l-0.1-0.1l0,0h-0.1V25L24.1,24.9z M24.1,25.4L24.1,25.4l0.1,0.1l-0.1,0.1V25.4z M24.7,26.6
		l-0.1-0.1v-0.1l-0.1-0.1l-0.1-0.1h0.1l0.1,0.1l0.2,0.1L24.7,26.6L24.7,26.6z M24.8,26.3L24.8,26.3L24.8,26.3L24.8,26.3z M24.8,25.5
		l-0.1,0.1l-0.1,0.1l0.1,0.1v0.1v-0.1h-0.1h-0.1h-0.1l-0.2-0.1l0,0l0.1-0.1h0.1l0.1-0.2h0.1h0.1L24.8,25.5l0.2-0.1L24.8,25.5z
		 M25.1,25.9L25.1,25.9l0.1-0.1l0.1,0.1H25.1z M25.4,19.6h-0.1l-0.1,0.1c0,0-0.1,0-0.1,0.1c-0.2-0.1-0.3-0.2-0.5-0.3
		c-0.3-0.3-0.6-0.6-0.7-1l0,0H24l-0.2-0.1l0,0c0-0.1,0-0.1,0-0.2h0.1h0.4l0.1-0.3L24.1,18H24l-0.2-0.2c0-0.1,0-0.1,0-0.2
		c0-0.4,0.1-0.8,0.3-1.2l0.1,0.4L24,17.2l0.3-0.3l0.3-0.4l0.2-0.1h-0.1l-0.1,0.1v-0.2l-0.1-0.2l-0.2,0.3h-0.1
		c0.2-0.2,0.3-0.4,0.6-0.5l0.1,0.2H25V16l-0.1-0.1l0,0l0,0l0.1-0.1v-0.5c0-0.1,0.1-0.1,0.1-0.1c0.1,0,0.1,0.1,0.1,0.1v0.5
		c0.3,0.2,0.6,0.4,0.8,0.7v-0.1h0.1l0.2-0.1l-0.1,0.2l0.1,0.1l-0.1,0.2l-0.1-0.2L26,16.4c0.2,0.4,0.4,0.8,0.4,1.3
		c0,0.3,0,0.5-0.1,0.8h-0.2v0.1h0.1c-0.1,0.3-0.3,0.5-0.5,0.7l0,0l0.1-0.1l0.1-0.2l-0.1-0.1V19l-0.1,0.2l-0.1,0.2h0.1l-0.1,0.1l0,0
		l-0.2-0.1l-0.1,0.1L25.4,19.6z M25.4,26.5v-0.1v-0.1l0.1,0.1L25.4,26.5z M26.3,25.2L26.3,25.2L26.3,25.2
		C26.4,25.2,26.4,25.2,26.3,25.2z M26.7,24.8L26.7,24.8v-0.1h0.1h0.1v0.1v0.3l0,0h-0.1v-0.2v-0.1L26.7,24.8L26.7,24.8L26.7,24.8
		L26.7,24.8z M27.2,24.9L27,24.7h0.2l0.1,0.1L27.2,24.9z M28.5,23.7h-0.2l0.2-0.1C28.5,23.6,28.5,23.6,28.5,23.7z M28.6,23.3
		l-0.2-0.1l-0.1,0.2l0.2,0.1L28.6,23.3v0.1h-0.2l-0.2,0.1v-0.1l-0.1-0.1L28,23.5v0.1l-0.2,0.1l-0.1-0.1l0.2-0.1v-0.1l-0.2-0.1v-0.1
		l-0.2,0.1l0.1,0.1v0.1h-0.1h-0.1l-0.1,0.1l0.1,0.1l0.1,0.3l0.2,0.1l0.1,0.1h0.1v0.1l-0.1,0.1l0,0h-0.1v-0.1v-0.1h-0.2L27.4,24
		l-0.2-0.1L27,24v0.1l0.1,0.2v0.2L27,24.6l0,0v0.1l0,0v-0.1l-0.1,0.1l0,0l0.1-0.2v-0.2h-0.2h-0.3l-0.1,0.2l0.1,0.1l-0.1,0.1v0.1l0,0
		l0.1,0.2v0.1l0.1-0.1l0.1,0.3h-0.1v-0.1h-0.1l0,0l0.1-0.1h-0.1l0,0h-0.1L26.3,25h-0.2v0.2l0,0l0,0l0,0L26,25.1h-0.1l0.1,0.1
		c-0.2,0-0.3-0.1-0.5-0.1c-0.3-0.8-0.1-1.6,0.4-2.3c0.1-0.1,0.1-0.1,0.2-0.2c0.3-0.3,0.6-0.4,0.9-0.6h0.1v0.1l0.1-0.1
		c0.1,0,0.2,0,0.2-0.1l0,0l0,0c0.3,0,0.5,0,0.8,0v-0.5v-0.1l0,0l0.1-0.1c0.1,0,0.1,0.1,0.1,0.1v0.6l0,0l0,0l0,0l0,0
		C28.7,22.5,28.7,22.9,28.6,23.3z"/>
	<polygon fill="none" points="27.1,20.4 27.1,20.2 27.3,20.2 27.1,20.2 27,20.4 26.9,20.7 27.2,20.6 27.2,20.4 	"/>
	<polygon fill="none" points="27.2,21.2 27.3,21.2 27.4,21.1 27.5,21.1 27.3,21 	"/>
	<polygon fill="none" points="27.1,19.9 27.1,19.8 26.9,19.7 26.9,19.7 27,19.9 	"/>
	<polygon fill="none" points="26.4,20.5 26.4,20.7 26.5,20.7 26.5,20.6 26.5,20.5 26.7,20.5 26.7,20.3 26.6,20.2 26.5,20.1 26.7,20 
		26.4,19.8 26.3,19.7 26.4,19.6 26.5,19.7 26.7,19.5 26.7,19.3 26.5,19.2 26.4,19.4 26.3,19.5 26.2,19.7 26.3,19.8 26.4,19.9 
		26.3,20 26.1,20 26,20.1 26.4,20.2 	"/>
	<polygon fill="none" points="26.7,21 26.9,21 27,20.9 26.8,20.9 	"/>
	<polygon fill="none" points="27.1,22.7 27.1,22.8 27.3,22.7 27.1,22.6 	"/>
	<polygon fill="none" points="26.7,21.7 26.9,21.7 26.9,21.5 26.8,21.5 	"/>
	<polygon fill="none" points="26.6,21.2 26.5,21.3 26.6,21.4 26.8,21.3 	"/>
	<polygon fill="none" points="26,21.4 26.1,21.2 26.1,21.1 25.9,21.3 26.1,21.6 26.2,21.7 26.5,21.6 26.5,21.6 26.3,21.6 	"/>
	<polygon fill="none" points="26.6,23 26.4,23.1 26.5,23.2 26.6,23.1 	"/>
	<polygon fill="none" points="24.7,19.2 24.7,19.3 24.8,19.4 24.8,19.5 24.9,19.4 24.8,19.3 	"/>
	<polygon fill="none" points="24.7,18.8 24.6,18.9 24.7,18.9 	"/>
</g>
</svg>
